# AST/ASF file generated using VICON BodyLanguage
# -----------------------------------------------
:version 1.10
:name VICON
:units
  mass 1.0
  length 0.45
  angle deg
:documentation
   .ast/.asf automatically generated from VICON data using
   VICON BodyBuilder and BodyLanguage model FoxedUp or BRILLIANT.MOD
:root
   order TX TY TZ RX RY RZ
   axis XYZ
   position 0 0 0  
   orientation 0 0 0 
:bonedata
  begin
     id 1 
     name lhipjoint
     direction 0.577973 -0.728611 0.367523 
     length 2.48544 
     axis 0 0 0  XYZ
  end
  begin
     id 2 
     name lfemur
     direction 0.34202 -0.939693 0  
     length 7.1921  
     axis 0 0 20  XYZ
    dof rx ry rz
    limits (-160.0 20.0)
           (-70.0 70.0)
           (-60.0 70.0)
  end
  begin
     id 3 
     name ltibia
     direction 0.34202 -0.939693 0   
     length 7.71059   
     axis 0 0 20   XYZ
    dof rx
    limits (-10.0 170.0)
  end
  begin
     id 4 
     name lfoot
     direction 0.089538 -0.246004 0.965124   
     length 2.19909   
     axis -90 7.62852e-016 20   XYZ
    dof rx rz
    limits (-45.0 90.0)
           (-70.0 20.0)
  end
  begin
     id 5 
     name ltoes
     direction 1.53544e-011 -4.21829e-011 1   
     length 1.10116   
     axis -90 7.62852e-016 20   XYZ
    dof rx
    limits (-90.0 20.0)
  end
  begin
     id 6 
     name rhipjoint
     direction -0.554414 -0.743062 0.374812   
     length 2.4371  
     axis 0 0 0  XYZ 
  end
  begin
     id 7 
     name rfemur
     direction -0.34202 -0.939693 0   
     length 7.47254   
     axis 0 0 -20   XYZ
    dof rx ry rz
    limits (-160.0 20.0)
           (-70.0 70.0)
           (-70.0 60.0)
  end
  begin
     id 8 
     name rtibia
     direction -0.34202 -0.939693 0   
     length 7.65855   
     axis 0 0 -20   XYZ
    dof rx
    limits (-10.0 170.0)
 end
 begin
     id 9 
     name rfoot
     direction -0.133779 -0.367555 0.92033   
     length 2.43006  
     axis -90 -7.62852e-016 -20   XYZ
    dof rx rz
    limits (-45.0 90.0)
           (-20.0 70.0)
  end
  begin
     id 10 
     name rtoes
     direction -1.53563e-011 -4.21889e-011 1   
     length 1.19625   
     axis -90 -7.62852e-016 -20   XYZ
    dof rx
    limits (-90.0 20.0)
  end
  begin
     id 11 
     name lowerback
     direction 0.0249066 0.998043 -0.0573585   
     length 2.08485   
     axis 0 0 0   XYZ
    dof rx ry rz
    limits (-20.0 45.0)
           (-30.0 30.0)
           (-30.0 30.0)
  end
  begin
     id 12 
     name upperback
     direction 0.0237884 0.999673 0.00943178   
     length 2.08515   
     axis 0 0 0   XYZ
    dof rx ry rz
    limits (-20.0 45.0)
           (-30.0 30.0)
           (-30.0 30.0)
  end
  begin
     id 13 
     name thorax
     direction 0.0106671 0.999301 0.0358174   
     length 2.09037   
     axis 0 0 0   XYZ
    dof rx ry rz
    limits (-20.0 45.0)
           (-30.0 30.0)
           (-30.0 30.0)
  end
  begin
     id 14 
     name lowerneck
     direction -0.0580016 0.987052 0.149546   
     length 1.84454   
     axis 0 0 0   XYZ
    dof rx ry rz
    limits (-20.0 45.0)
           (-30.0 30.0)
           (-30.0 30.0)
  end
  begin
     id 15 
     name upperneck
     direction 0.079456 0.981963 -0.171567   
     length 1.88141   
     axis 0 0 0   XYZ
    dof rx ry rz
    limits (-20.0 45.0)
           (-30.0 30.0)
           (-30.0 30.0)
  end
  begin
     id 16
     name head
     direction 0.0262167 0.9967 -0.0768276  
     length 1.89541  
     axis 0 0 0   XYZ
    dof rx ry rz
    limits (-20.0 45.0)
           (-30.0 30.0)
           (-30.0 30.0)
  end
  begin
     id 17 
     name lclavicle
     direction 0.946135 0.322134 -0.0325326  
     length 3.949  
     axis 0 0 0   XYZ
    dof ry rz
    limits (-20.0 10.0)
           (0.0 20.0)
  end
  begin
     id 18 
     name lhumerus
     direction 1 -4.48964e-011 1.94005e-028   
     length 5.10995   
     axis 180 -30 -90   XYZ
    dof rx ry rz
    limits (-60.0 90.0)
           (-90.0 90.0)
           (-90.0 90.0)
  end
  begin
     id 19
     name lradius
     direction 1 -4.48976e-011 2.87852e-027   
     length 3.21207   
     axis 180 -30 -90   XYZ
    dof rx
    limits (-10.0 170.0)
  end
  begin
     id 20
     name lwrist
     direction 1 -4.48963e-011 1.9975e-027   
     length 1.60604   
     axis 2.96054e-016 90 90   XYZ
    dof ry
    limits (-180.0 0.0)
 end
  begin
     id 21 
     name lhand
     direction 1 -4.48919e-011 4.00227e-027   
     length 0.63349   
     axis -2.5488e-015 90 90   XYZ
    dof rx rz
    limits (-90.0 90.0)
           (-45.0 45.0)
  end
  begin
     id 22 
     name lfingers
     direction 1 -4.49037e-011 7.9652e-027   
     length 0.510736   
     axis -5.0975e-015 90 90   XYZ
    dof rx
    limits (0.0 90.0)
  end
  begin
     id 23
     name lthumb
     direction 0.707107 -6.34922e-011 0.707107   
     length 0.733318   
     axis -90 45 -4.48553e-014   XYZ
    dof rx rz
    limits (-45.0 45.0)
           (-45.0 45.0)
  end
  begin
     id 24 
     name rclavicle
     direction -0.940085 0.328911 -0.0897654   
     length 3.93848  
     axis 0 0 0   XYZ 
    dof ry rz
    limits (-10.0 20.0)
           (-20.0 0.0)
  end
  begin
     id 25 
     name rhumerus
     direction -1 -4.48958e-011 3.02044e-027  
     length 5.25109   
     axis 180 30 90   XYZ
    dof rx ry rz
    limits (-90.0 60.0)
           (-90.0 90.0)
           (-90.0 90.0)
  end
  begin
     id 26 
     name rradius
     direction -1 -4.4897e-011 9.78352e-028   
     length 3.28364   
     axis 180 30 90   XYZ
    dof rx
    limits (-10.0 170.0)
  end
  begin
     id 27 
     name rwrist
     direction -1 -4.48943e-011 1.99918e-027   
     length 1.64182   
     axis 2.96054e-016 -90 -90   XYZ
    dof ry
    limits (-180.0 0.0)
  end
  begin
     id 28
     name rhand
     direction -1 -4.49024e-011 3.98478e-027   
     length 0.599745   
     axis -2.5488e-015 -90 -90   XYZ
    dof rx rz
    limits (-90.0 90.0)
           (-45.0 45.0)
  end
  begin
     id 29
     name rfingers
     direction -1 -4.48914e-011 8.00621e-027   
     length 0.48353   
     axis -5.0975e-015 -90 -90   XYZ
    dof rx
    limits (0.0 90.0)
  end
  begin
     id 30
     name rthumb
     direction -0.707107 -6.34992e-011 0.707107   
     length 0.694255   
     axis -90 -45 4.48553e-014   XYZ
    dof rx rz
    limits (-45.0 45.0)
           (-45.0 45.0)
  end
:hierarchy
  begin
    root lhipjoint rhipjoint lowerback
    lhipjoint lfemur
    lfemur ltibia
    ltibia lfoot
    lfoot ltoes
    rhipjoint rfemur
    rfemur rtibia
    rtibia rfoot
    rfoot rtoes
    lowerback upperback
    upperback thorax
    thorax lowerneck lclavicle rclavicle
    lowerneck upperneck
    upperneck head
    lclavicle lhumerus
    lhumerus lradius
    lradius lwrist
    lwrist lhand lthumb
    lhand lfingers
    rclavicle rhumerus
    rhumerus rradius
    rradius rwrist
    rwrist rhand rthumb
    rhand rfingers
  end

#!OML:ASF E:\CV Data\Top Level 1\Subject 1\Session 1\player.ASF
:FULLY-SPECIFIED
:DEGREES
578
root 4.8801 17.1535 -2.87967 4.91112 -23.1851 -7.99809
lowerback 10.985 0.624204 2.70917
upperback -0.0685949 1.39638 3.71133
thorax -6.27797 0.65215 2.15211
lowerneck -18.8537 -5.11326 -11.0502
upperneck 17.3188 -6.93406 13.679
head 9.46956 -2.55822 5.65427
rclavicle 6.34372e-014 -1.64991e-014
rhumerus 149.472 174.999 103.173
rradius 47.6484
rwrist -13.8126
rhand -27.5206 15.6089
rfingers 7.12502
rthumb -0.922947 -14.3689
lclavicle 6.34372e-014 -1.64991e-014
lhumerus -31.1507 -28.3409 104.391
lradius 77.9236
lwrist 8.95024
lhand -8.9118 16.119
lfingers 7.12502
lthumb 17.0313 45.3924
rfemur -20.7339 0.864292 30.0644
rtibia 39.3327
rfoot -21.1076 -3.39336
rtoes 6.23512
lfemur -21.2812 7.74404 -9.27718
ltibia 63.904
lfoot -14.2132 -5.2424
ltoes -19.6788
579
root 4.93523 17.1595 -2.9606 5.04876 -23.6977 -7.94928
lowerback 10.8931 0.625761 2.81422
upperback -0.0724471 1.40819 3.73962
thorax -6.22873 0.65512 2.1214
lowerneck -18.8361 -4.96384 -10.9925
upperneck 17.3693 -6.70457 13.4924
head 9.44074 -2.46666 5.6121
rclavicle -2.33572e-015 -2.127e-014
rhumerus 149.527 177.099 104.631
rradius 47.1248
rwrist -12.6809
rhand -27.796 16.1502
rfingers 7.12502
rthumb -1.18886 -13.8262
lclavicle -2.33572e-015 -2.127e-014
lhumerus -31.1022 -27.8448 104.236
lradius 78.1188
lwrist 8.65886
lhand -9.34085 15.6422
lfingers 7.12502
lthumb 16.6183 44.9507
rfemur -21.2043 0.911253 29.8785
rtibia 39.2424
rfoot -20.8395 -2.67905
rtoes 6.23342
lfemur -19.9362 7.79993 -9.38345
ltibia 63.6342
lfoot -13.7807 -6.60312
ltoes -19.6215
580
root 4.99016 17.1641 -3.04086 5.17822 -24.1997 -7.88275
lowerback 10.7953 0.624317 2.88585
upperback -0.0727029 1.41109 3.76818
thorax -6.17296 0.654873 2.11129
lowerneck -18.7789 -4.81272 -10.9481
upperneck 17.4005 -6.47355 13.318
head 9.39952 -2.37566 5.57619
rclavicle 2.33572e-015 -1.19271e-014
rhumerus 149.563 179.15 106.062
rradius 46.65
rwrist -11.4393
rhand -28.1247 16.6882
rfingers 7.12502
rthumb -1.50637 -13.2863
lclavicle 2.33572e-015 -1.19271e-014
lhumerus -31.0595 -27.3192 104.075
lradius 78.2726
lwrist 8.3015
lhand -9.83692 15.1434
lfingers 7.12502
lthumb 16.1407 44.4913
rfemur -21.6932 0.964956 29.6839
rtibia 39.1793
rfoot -20.5362 -1.97859
rtoes 6.36141
lfemur -18.5789 7.83066 -9.53732
ltibia 63.2155
lfoot -13.3374 -8.05211
ltoes -19.4556
581
root 5.04472 17.1678 -3.12043 5.29199 -24.6873 -7.78786
lowerback 10.69 0.613403 2.9167
upperback -0.0709432 1.39552 3.79453
thorax -6.11139 0.646892 2.12477
lowerneck -18.6719 -4.65316 -10.9216
upperneck 17.4021 -6.23233 13.1648
head 9.33956 -2.28091 5.55151
rclavicle 1.61513e-014 -2.54444e-014
rhumerus 149.573 181.108 107.449
rradius 46.2426
rwrist -10.2511
rhand -28.4681 17.1862
rfingers 7.12502
rthumb -1.83796 -12.7857
lclavicle 1.61513e-014 -2.54444e-014
lhumerus -31.029 -26.7575 103.904
lradius 78.3941
lwrist 7.91426
lhand -10.3933 14.6555
lfingers 7.12502
lthumb 15.6049 44.046
rfemur -22.1963 1.02596 29.4703
rtibia 39.1429
rfoot -20.1969 -1.29906
rtoes 6.6345
lfemur -17.2123 7.82009 -9.75257
ltibia 62.6387
lfoot -12.8987 -9.56598
ltoes -19.1952
582
root 5.09875 17.1707 -3.19962 5.38919 -25.1627 -7.65785
lowerback 10.5795 0.593138 2.89553
upperback -0.0727246 1.36094 3.81999
thorax -6.05146 0.631192 2.16957
lowerneck -18.5131 -4.48582 -10.9162
upperneck 17.3945 -5.98099 13.0222
head 9.26723 -2.18352 5.53516
rclavicle -3.08116e-015 -2.26615e-014
rhumerus 149.553 182.951 108.788
rradius 45.9141
rwrist -9.24565
rhand -28.7675 17.5999
rfingers 7.12502
rthumb -2.12715 -12.3692
lclavicle -3.08116e-015 -2.26615e-014
lhumerus -31.0274 -26.1483 103.732
lradius 78.5
lwrist 7.52689
lhand -11.0001 14.2015
lfingers 7.12502
lthumb 15.0204 43.6367
rfemur -22.7169 1.1031 29.232
rtibia 39.1344
rfoot -19.8219 -0.653071
rtoes 7.039
lfemur -15.8437 7.76384 -10.038
ltibia 61.898
lfoot -12.4614 -11.1103
ltoes -18.795
583
root 5.15214 17.1729 -3.27868 5.4685 -25.6274 -7.48706
lowerback 10.4653 0.564101 2.81904
upperback -0.0816194 1.30798 3.84024
thorax -5.99755 0.608053 2.24283
lowerneck -18.3355 -4.30781 -10.9046
upperneck 17.3881 -5.71818 12.8759
head 9.19057 -2.08108 5.51765
rclavicle -4.17448e-014 1.70955e-014
rhumerus 149.497 184.662 110.064
rradius 45.6851
rwrist -8.57338
rhand -29.0111 17.8828
rfingers 7.12502
rthumb -2.3624 -12.0838
lclavicle -4.17448e-014 1.70955e-014
lhumerus -31.072 -25.4963 103.557
lradius 78.612
lwrist 7.15474
lhand -11.6042 13.8165
lfingers 7.12502
lthumb 14.4384 43.2943
rfemur -23.2566 1.20048 28.9638
rtibia 39.1545
rfoot -19.4227 -0.0518252
rtoes 7.53182
lfemur -14.4802 7.65527 -10.3997
ltibia 60.9907
lfoot -12.0016 -12.6533
ltoes -18.257
584
root 5.20496 17.174 -3.35789 5.53103 -26.077 -7.27568
lowerback 10.3511 0.524766 2.68849
upperback -0.101073 1.23542 3.85635
thorax -5.95523 0.576805 2.34514
lowerneck -18.1572 -4.11958 -10.8862
upperneck 17.3953 -5.44382 12.7252
head 9.11713 -1.97292 5.49887
rclavicle -6.41081e-015 -6.75868e-015
rhumerus 149.402 186.227 111.273
rradius 45.5655
rwrist -8.32411
rhand -29.1588 18.0366
rfingers 7.12502
rthumb -2.50503 -11.9284
lclavicle -6.41081e-015 -6.75868e-015
lhumerus -31.1651 -24.8082 103.379
lradius 78.7424
lwrist 6.8354
lhand -12.1916 13.5137
lfingers 7.12502
lthumb 13.8724 43.0311
rfemur -23.8177 1.31869 28.6652
rtibia 39.2054
rfoot -19.0155 0.49694
rtoes 8.06962
lfemur -13.1284 7.48492 -10.8367
ltibia 59.9173
lfoot -11.4979 -14.1426
ltoes -17.637
